<svg width="12" height="11" viewBox="0 0 12 11" fill="none" xmlns="http://www.w3.org/2000/svg">
<path d="M5.4021 0.370822C4.55039 2.09771 2.90328 3.29511 0.997929 3.5729C0.452096 3.65206 0.233346 4.32498 0.629179 4.71039C2.00769 6.05369 2.63637 7.99049 2.31043 9.88746C2.21668 10.4354 2.79376 10.8458 3.2771 10.5895C4.9818 9.6935 7.01823 9.6935 8.72293 10.5895C9.20626 10.8437 9.78335 10.4354 9.6896 9.88746C9.36365 7.99049 9.99233 6.05369 11.3708 4.71039C11.7667 4.32498 11.5479 3.65206 11.0021 3.5729C9.09674 3.29511 7.44963 2.09771 6.59793 0.370822C6.35418 -0.120844 5.64793 -0.127094 5.4021 0.370822Z" fill="white"/>
</svg>
